<?xml version="1.0" standalone="no"?>
<!DOCTYPE svg PUBLIC "-//W3C//DTD SVG 20010904//EN"
 "http://www.w3.org/TR/2001/REC-SVG-20010904/DTD/svg10.dtd">
<svg version="1.0" xmlns="http://www.w3.org/2000/svg"
 width="" height="" viewBox="0 0 64.000000 64.000000"
 preserveAspectRatio="xMidYMid meet">
<metadata>
Created by potrace 1.10, written by Peter Selinger 2001-2011
</metadata>
<g transform="translate(0.000000,64.000000) scale(0.100000,-0.100000)"
fill="#42ca00" stroke="none">
<path d="M410 412 l-205 -203 -60 65 -60 65 -30 -37 c-16 -20 -24 -32 -16 -27
9 5 12 4 7 -3 -4 -6 -13 -9 -21 -5 -31 11 -11 -15 94 -126 l108 -114 197 293
c107 162 195 294 193 294 -1 1 -94 -90 -207 -202z m65 36 c-28 -29 -98 -103
-157 -164 l-107 -110 -63 63 c-48 48 -65 60 -75 51 -21 -17 -25 -3 -5 15 18
16 22 14 76 -43 32 -33 61 -60 64 -60 4 0 75 68 157 150 147 147 208 201 110
98z m-84 -133 c-9 -19 -22 -34 -28 -35 -7 0 -13 -5 -13 -11 0 -6 6 -7 13 -2
13 8 8 -1 -81 -135 -54 -80 -56 -82 -75 -65 -33 30 -163 177 -148 169 10 -7
12 -4 6 13 -11 35 21 25 65 -19 22 -23 40 -45 40 -50 0 -5 12 -13 27 -16 25
-7 36 2 118 89 49 53 91 97 91 97 1 0 -6 -16 -15 -35z"/>
<path d="M330 239 c0 -5 5 -7 10 -4 6 3 10 8 10 11 0 2 -4 4 -10 4 -5 0 -10
-5 -10 -11z"/>
<path d="M105 190 c62 -72 131 -140 107 -105 -11 17 -49 57 -83 90 -51 49 -56
52 -24 15z"/>
<path d="M283 178 c-21 -27 -26 -41 -14 -37 7 3 12 8 11 13 -1 5 4 12 11 17 8
4 11 11 8 14 -4 3 -11 0 -16 -7z"/>
<path d="M250 119 c0 -5 5 -7 10 -4 6 3 10 8 10 11 0 2 -4 4 -10 4 -5 0 -10
-5 -10 -11z"/>
<path d="M230 89 c0 -5 5 -7 10 -4 6 3 10 8 10 11 0 2 -4 4 -10 4 -5 0 -10 -5
-10 -11z"/>
</g>
</svg>
